<svg width="128" height="128" viewBox="0 0 128 128" fill="none" xmlns="http://www.w3.org/2000/svg">
<path d="M89.2914 58.3905H82.2732C80.9692 58.3905 79.8145 59.2329 79.4164 60.4747L72.8765 80.876C72.2559 82.8121 73.7002 84.7918 75.7333 84.7918H79.3152C80.4602 84.7918 81.3715 85.7511 81.3126 86.8946L80.2037 108.431C80.176 108.969 80.9005 109.165 81.1474 108.686L96.5342 78.8757C97.5648 76.879 96.1154 74.4997 93.8684 74.4997H90.8733C89.5093 74.4997 88.5455 73.1644 88.975 71.8699L92.1387 62.3353C92.783 60.3934 91.3373 58.3905 89.2914 58.3905Z" fill="white"/>
<path opacity="0.54" d="M98.1803 82.9112L100.241 78.9196C102.062 75.3909 99.5004 71.1862 95.5293 71.1862H92.6932L95.7252 62.0484C96.8639 58.6167 94.309 55.0769 90.6932 55.0769H81.5351C79.2305 55.0769 77.1899 56.5657 76.4864 58.7603L69.2978 81.1852C69.1122 81.7641 69.0311 82.3452 69.0418 82.9112L33.1834 82.9112C19.275 82.9112 8 71.6362 8 57.7278C8 43.8194 19.275 32.5444 33.1834 32.5444C36.1992 32.5444 39.0912 33.0745 41.7712 34.0466C47.059 21.1128 59.7671 12 74.6036 12C94.1852 12 110.059 27.874 110.059 47.4556C110.059 48.3182 110.028 49.1737 109.968 50.0208C115.889 52.7474 120 58.7339 120 65.6805C120 75.1967 112.285 82.9112 102.769 82.9112H98.1803Z" fill="white"/>
<path d="M68.4336 109.964L64.9941 102.793L61.5548 109.963C61.2133 110.561 61.0178 111.256 61.0178 111.997C61.0178 114.234 62.798 116.047 64.9941 116.047C67.1902 116.047 68.9704 114.234 68.9704 111.997C68.9704 111.256 68.7749 110.561 68.4336 109.964Z" fill="white"/>
<path d="M56.5045 96.7091L53.0651 89.5385L49.6256 96.7094C49.2843 97.307 49.0888 98.0017 49.0888 98.7429C49.0888 100.98 50.869 102.793 53.0651 102.793C55.2612 102.793 57.0414 100.98 57.0414 98.7429C57.0414 98.0016 56.8459 97.3068 56.5045 96.7091Z" fill="white"/>
<path d="M44.5756 109.964L41.1361 102.793L37.6968 109.963C37.3554 110.561 37.1598 111.256 37.1598 111.997C37.1598 114.234 38.9401 116.047 41.1361 116.047C43.3322 116.047 45.1124 114.234 45.1124 111.997C45.1124 111.256 44.917 110.561 44.5756 109.964Z" fill="white"/>
<path d="M32.6465 96.7092L29.2071 89.5385L25.7676 96.7094C25.4263 97.307 25.2308 98.0017 25.2308 98.7429C25.2308 100.98 27.0111 102.793 29.2071 102.793C31.4032 102.793 33.1835 100.98 33.1835 98.7429C33.1835 98.0016 32.9879 97.3068 32.6465 96.7092Z" fill="white"/>
</svg>
